<svg xmlns="http://www.w3.org/2000/svg" version="1.1" xmlns:xlink="http://www.w3.org/1999/xlink" xmlns:svgjs="http://svgjs.dev/svgjs" width="1500" height="1500" viewBox="0 0 1500 1500"><rect width="1500" height="1500" fill="#ffffff"></rect><g transform="matrix(0.6666666666666666,0,0,0.6666666666666666,249.91511433957845,444.33333333333337)"><svg viewBox="0 0 327 200" data-background-color="#ffffff" preserveAspectRatio="xMidYMid meet" height="917" width="1500" xmlns="http://www.w3.org/2000/svg" xmlns:xlink="http://www.w3.org/1999/xlink"><g id="tight-bounds" transform="matrix(1,0,0,1,0.02775761095784901,0)"><svg viewBox="0 0 326.9444847780843 200" height="200" width="326.9444847780843"><g><svg viewBox="0 0 326.9444847780843 200" height="200" width="326.9444847780843"><g><svg viewBox="0 0 326.9444847780843 200" height="200" width="326.9444847780843"><g id="textblocktransform"><svg viewBox="0 0 326.9444847780843 200" height="200" width="326.9444847780843" id="textblock"><g><svg viewBox="0 0 326.9444847780843 200" height="200" width="326.9444847780843"><g transform="matrix(1,0,0,1,0,0)"><svg width="326.9444847780843" viewBox="0.15000000000000124 -36.74 197.9 118.06000000000003" height="200" data-palette-color="#000000"><svg></svg><svg></svg><svg></svg><g class="wordmark-text-0" data-fill-palette-color="primary" id="text-0"><path d="M16.16-33.84l11.55 33.84h-4.27l-3.32-10.5h-12.5l-3.35 10.5h-4.12l11.54-33.84zM10.35-19.07v0l-1.71 5.37h10.48l-1.71-5.37c-0.62-1.9-1.207-3.787-1.76-5.66-0.553-1.873-1.117-3.793-1.69-5.76v0h-0.21c-0.507 1.967-1.047 3.887-1.62 5.76-0.567 1.873-1.16 3.76-1.78 5.66zM40.65 0.61v0c-3.107 0-5.6-1.137-7.48-3.41-1.88-2.267-2.82-5.483-2.82-9.65v0c0-2.7 0.507-5.037 1.52-7.01 1.02-1.967 2.357-3.483 4.01-4.55 1.647-1.067 3.423-1.6 5.33-1.6v0c1.447 0 2.713 0.257 3.8 0.77 1.08 0.513 2.167 1.223 3.26 2.13v0l-0.15-4.29v-9.74h3.98v36.74h-3.3l-0.31-2.98h-0.15c-0.993 0.98-2.14 1.823-3.44 2.53-1.307 0.707-2.723 1.06-4.25 1.06zM41.53-2.71v0c1.187 0 2.31-0.29 3.37-0.87 1.053-0.573 2.127-1.457 3.22-2.65v0-13.35c-1.107-0.973-2.163-1.673-3.17-2.1-1.013-0.42-2.047-0.63-3.1-0.63v0c-1.387 0-2.637 0.413-3.75 1.24-1.113 0.833-2.007 1.99-2.68 3.47-0.667 1.48-1 3.197-1 5.15v0c0 3.04 0.62 5.423 1.86 7.15 1.233 1.727 2.983 2.59 5.25 2.59zM70.63 0h-4.59l-9.06-24.98h4.08l4.88 14.38c0.373 1.24 0.757 2.48 1.15 3.72 0.393 1.233 0.783 2.453 1.17 3.66v0h0.22c0.373-1.207 0.763-2.427 1.17-3.66 0.407-1.24 0.79-2.48 1.15-3.72v0l4.88-14.38h3.86zM94.07 0.61v0c-2.02 0-3.903-0.513-5.65-1.54-1.753-1.027-3.163-2.51-4.23-4.45-1.067-1.947-1.6-4.303-1.6-7.07v0c0-2.787 0.533-5.16 1.6-7.12 1.067-1.96 2.477-3.457 4.23-4.49 1.747-1.033 3.63-1.55 5.65-1.55v0c2.047 0 3.95 0.517 5.71 1.55 1.76 1.033 3.173 2.53 4.24 4.49 1.067 1.96 1.6 4.333 1.6 7.12v0c0 2.767-0.533 5.123-1.6 7.07-1.067 1.94-2.48 3.423-4.24 4.45-1.76 1.027-3.663 1.54-5.71 1.54zM94.07-2.66v0c2.227 0 4.033-0.9 5.42-2.7 1.38-1.8 2.07-4.163 2.07-7.09v0c0-2.947-0.69-5.327-2.07-7.14-1.387-1.813-3.193-2.72-5.42-2.72v0c-1.453 0-2.74 0.413-3.86 1.24-1.12 0.833-1.993 1.987-2.62 3.46-0.627 1.467-0.94 3.187-0.94 5.16v0c0 2.927 0.69 5.29 2.07 7.09 1.387 1.8 3.17 2.7 5.35 2.7zM122.12 0.61v0c-2.2 0-4.177-0.513-5.93-1.54-1.76-1.027-3.153-2.51-4.18-4.45-1.027-1.947-1.54-4.303-1.54-7.07v0c0-2.787 0.553-5.16 1.66-7.12 1.107-1.96 2.57-3.457 4.39-4.49 1.813-1.033 3.777-1.55 5.89-1.55v0c1.66 0 3.077 0.283 4.25 0.85 1.173 0.573 2.2 1.273 3.08 2.1v0l-2.01 2.47c-0.7-0.653-1.477-1.17-2.33-1.55-0.853-0.38-1.793-0.57-2.82-0.57v0c-1.547 0-2.927 0.413-4.14 1.24-1.207 0.833-2.16 1.987-2.86 3.46-0.7 1.467-1.05 3.187-1.05 5.16v0c0 2.927 0.73 5.29 2.19 7.09 1.467 1.8 3.39 2.7 5.77 2.7v0c1.187 0 2.283-0.227 3.29-0.68 1.007-0.46 1.893-1.04 2.66-1.74v0l1.76 2.52c-2.293 2.113-4.987 3.17-8.08 3.17zM141.53 0.61v0c-2.087 0-3.83-0.607-5.23-1.82-1.4-1.213-2.1-2.95-2.1-5.21v0c0-2.733 1.243-4.833 3.73-6.3 2.48-1.467 6.397-2.5 11.75-3.1v0c0-1.107-0.15-2.157-0.45-3.15-0.3-0.993-0.83-1.807-1.59-2.44-0.753-0.633-1.83-0.95-3.23-0.95v0c-1.48 0-2.867 0.283-4.16 0.85-1.293 0.573-2.43 1.167-3.41 1.78v0l-1.54-2.63c1.107-0.767 2.503-1.5 4.19-2.2 1.687-0.7 3.537-1.05 5.55-1.05v0c3.047 0 5.24 0.937 6.58 2.81 1.347 1.867 2.02 4.33 2.02 7.39v0 15.41h-3.3l-0.32-3.03h-0.14c-1.207 0.993-2.513 1.85-3.92 2.57-1.407 0.713-2.883 1.07-4.43 1.07zM142.6-2.56v0c1.253 0 2.43-0.293 3.53-0.88 1.1-0.587 2.283-1.427 3.55-2.52v0-7.22c-2.88 0.353-5.167 0.823-6.86 1.41-1.693 0.587-2.907 1.297-3.64 2.13-0.727 0.827-1.09 1.793-1.09 2.9v0c0 1.48 0.437 2.547 1.31 3.2 0.88 0.653 1.947 0.98 3.2 0.98zM169.34 0.61v0c-2.62 0-4.443-0.757-5.47-2.27-1.027-1.513-1.54-3.5-1.54-5.96v0-14.11h-3.71v-3.05l3.93-0.2 0.46-8.1h3.3v8.1h6.86v3.25h-6.86v14.21c0 1.547 0.283 2.75 0.85 3.61 0.573 0.867 1.59 1.3 3.05 1.3v0c0.44 0 0.907-0.047 1.4-0.14 0.487-0.087 0.983-0.243 1.49-0.47v0l0.87 2.78c-0.667 0.293-1.397 0.543-2.19 0.75-0.8 0.2-1.613 0.3-2.44 0.3zM188.87 0.61v0c-2.2 0-4.2-0.52-6-1.56-1.793-1.04-3.223-2.537-4.29-4.49-1.067-1.953-1.6-4.29-1.6-7.01v0c0-2.72 0.533-5.063 1.6-7.03 1.067-1.973 2.453-3.487 4.16-4.54 1.707-1.06 3.513-1.59 5.42-1.59v0c3.14 0 5.573 1.05 7.3 3.15 1.727 2.1 2.59 4.957 2.59 8.57v0c0 0.913-0.05 1.687-0.15 2.32v0h-17.02c0.133 2.713 0.963 4.903 2.49 6.57 1.533 1.66 3.52 2.49 5.96 2.49v0c1.253 0 2.4-0.17 3.44-0.51 1.047-0.333 2.017-0.8 2.91-1.4v0l1.39 2.47c-1.093 0.747-2.297 1.36-3.61 1.84-1.32 0.48-2.85 0.72-4.59 0.72zM180.83-14.43v0h13.73c0-2.62-0.553-4.613-1.66-5.98-1.107-1.367-2.67-2.05-4.69-2.05v0c-1.807 0-3.423 0.7-4.85 2.1-1.42 1.4-2.263 3.377-2.53 5.93z" fill="#000000" fill-rule="nonzero" stroke="none" stroke-width="1" stroke-linecap="butt" stroke-linejoin="miter" stroke-miterlimit="10" stroke-dasharray="" stroke-dashoffset="0" font-family="none" font-weight="none" font-size="none" text-anchor="none" style="mix-blend-mode: normal" data-fill-palette-color="primary" opacity="1"></path><path d="M16.16 6.51l11.55 33.84h-4.27l-3.32-10.5h-12.5l-3.35 10.5h-4.12l11.54-33.84zM10.35 21.28v0l-1.71 5.37h10.48l-1.71-5.37c-0.62-1.9-1.207-3.787-1.76-5.66-0.553-1.873-1.117-3.793-1.69-5.76v0h-0.21c-0.507 1.967-1.047 3.887-1.62 5.76-0.567 1.873-1.16 3.76-1.78 5.66zM38.65 40.96v0c-1.86 0-3.587-0.313-5.18-0.94-1.593-0.627-2.96-1.493-4.1-2.6v0l1.86-2.32c1.053 0.88 2.18 1.563 3.38 2.05 1.193 0.487 2.587 0.73 4.18 0.73v0c1.68 0 2.943-0.4 3.79-1.2 0.847-0.807 1.27-1.763 1.27-2.87v0c0-0.88-0.277-1.61-0.83-2.19-0.553-0.573-1.267-1.067-2.14-1.48-0.867-0.407-1.783-0.78-2.75-1.12v0c-1.233-0.453-2.413-0.983-3.54-1.59-1.12-0.6-2.037-1.357-2.75-2.27-0.72-0.907-1.08-2.043-1.08-3.41v0c0-1.953 0.74-3.61 2.22-4.97 1.487-1.36 3.58-2.04 6.28-2.04v0c1.547 0 2.973 0.263 4.28 0.79 1.313 0.533 2.45 1.197 3.41 1.99v0l-1.81 2.32c-0.88-0.633-1.787-1.123-2.72-1.47-0.933-0.353-1.97-0.53-3.11-0.53v0c-1.647 0-2.847 0.38-3.6 1.14-0.76 0.753-1.14 1.61-1.14 2.57v0c0 1.187 0.503 2.083 1.51 2.69 1.013 0.6 2.277 1.183 3.79 1.75v0c1.32 0.46 2.573 0.987 3.76 1.58 1.187 0.593 2.153 1.363 2.9 2.31 0.753 0.94 1.13 2.183 1.13 3.73v0c0 2.02-0.773 3.75-2.32 5.19-1.547 1.44-3.777 2.16-6.69 2.16zM57.59 40.35h-3.95v-36.74h3.95v10.1l-0.14 5.2c1.2-1.153 2.467-2.137 3.8-2.95 1.34-0.813 2.87-1.22 4.59-1.22v0c2.607 0 4.52 0.827 5.74 2.48 1.22 1.653 1.83 4.073 1.83 7.26v0 15.87h-3.9v-15.36c0-2.373-0.383-4.107-1.15-5.2-0.767-1.087-2.02-1.63-3.76-1.63v0c-1.287 0-2.45 0.34-3.49 1.02-1.04 0.687-2.213 1.68-3.52 2.98v0zM88.87 40.96v0c-2.62 0-4.547-0.823-5.78-2.47-1.227-1.64-1.84-4.057-1.84-7.25v0-15.87h3.91v15.36c0 2.36 0.387 4.08 1.16 5.16 0.773 1.087 2.02 1.63 3.74 1.63v0c1.307 0 2.477-0.34 3.51-1.02 1.033-0.673 2.167-1.773 3.4-3.3v0-17.83h3.91v24.98h-3.25l-0.34-3.96h-0.17c-1.153 1.373-2.39 2.477-3.71 3.31-1.32 0.84-2.833 1.26-4.54 1.26zM117.21 40.96v0c-2.62 0-4.443-0.757-5.47-2.27-1.02-1.513-1.53-3.5-1.53-5.96v0-14.11h-3.72v-3.05l3.93-0.2 0.47-8.1h3.29v8.1h6.86v3.25h-6.86v14.21c0 1.547 0.287 2.75 0.86 3.61 0.567 0.867 1.583 1.3 3.05 1.3v0c0.44 0 0.903-0.047 1.39-0.14 0.487-0.087 0.983-0.243 1.49-0.47v0l0.88 2.78c-0.667 0.293-1.4 0.543-2.2 0.75-0.793 0.2-1.607 0.3-2.44 0.3zM136.33 40.96v0c-2.02 0-3.903-0.513-5.65-1.54-1.753-1.027-3.163-2.51-4.23-4.45-1.067-1.947-1.6-4.303-1.6-7.07v0c0-2.787 0.533-5.16 1.6-7.12 1.067-1.96 2.477-3.457 4.23-4.49 1.747-1.033 3.63-1.55 5.65-1.55v0c2.047 0 3.95 0.517 5.71 1.55 1.76 1.033 3.173 2.53 4.24 4.49 1.067 1.96 1.6 4.333 1.6 7.12v0c0 2.767-0.533 5.123-1.6 7.07-1.067 1.94-2.48 3.423-4.24 4.45-1.76 1.027-3.663 1.54-5.71 1.54zM136.33 37.69v0c2.227 0 4.033-0.9 5.42-2.7 1.38-1.8 2.07-4.163 2.07-7.09v0c0-2.947-0.69-5.327-2.07-7.14-1.387-1.813-3.193-2.72-5.42-2.72v0c-1.447 0-2.733 0.413-3.86 1.24-1.12 0.833-1.993 1.987-2.62 3.46-0.627 1.467-0.94 3.187-0.94 5.16v0c0 2.927 0.69 5.29 2.07 7.09 1.387 1.8 3.17 2.7 5.35 2.7zM161.08 40.96v0c-1.853 0-3.577-0.313-5.17-0.94-1.593-0.627-2.96-1.493-4.1-2.6v0l1.85-2.32c1.06 0.88 2.187 1.563 3.38 2.05 1.2 0.487 2.597 0.73 4.19 0.73v0c1.68 0 2.94-0.4 3.78-1.2 0.847-0.807 1.27-1.763 1.27-2.87v0c0-0.88-0.277-1.61-0.83-2.19-0.553-0.573-1.263-1.067-2.13-1.48-0.873-0.407-1.79-0.78-2.75-1.12v0c-1.233-0.453-2.413-0.983-3.54-1.59-1.12-0.6-2.04-1.357-2.76-2.27-0.713-0.907-1.07-2.043-1.07-3.41v0c0-1.953 0.74-3.61 2.22-4.97 1.48-1.36 3.57-2.04 6.27-2.04v0c1.547 0 2.977 0.263 4.29 0.79 1.307 0.533 2.44 1.197 3.4 1.99v0l-1.8 2.32c-0.88-0.633-1.787-1.123-2.72-1.47-0.94-0.353-1.98-0.53-3.12-0.53v0c-1.64 0-2.84 0.38-3.6 1.14-0.753 0.753-1.13 1.61-1.13 2.57v0c0 1.187 0.503 2.083 1.51 2.69 1.007 0.6 2.267 1.183 3.78 1.75v0c1.32 0.46 2.573 0.987 3.76 1.58 1.193 0.593 2.163 1.363 2.91 2.31 0.747 0.94 1.12 2.183 1.12 3.73v0c0 2.02-0.773 3.75-2.32 5.19-1.547 1.44-3.777 2.16-6.69 2.16zM180.03 40.35h-3.96v-36.74h3.96v10.1l-0.15 5.2c1.207-1.153 2.477-2.137 3.81-2.95 1.333-0.813 2.863-1.22 4.59-1.22v0c2.607 0 4.52 0.827 5.74 2.48 1.22 1.653 1.83 4.073 1.83 7.26v0 15.87h-3.91v-15.36c0-2.373-0.38-4.107-1.14-5.2-0.767-1.087-2.02-1.63-3.76-1.63v0c-1.287 0-2.453 0.34-3.5 1.02-1.04 0.687-2.21 1.68-3.51 2.98v0z" fill="#000000" fill-rule="nonzero" stroke="none" stroke-width="1" stroke-linecap="butt" stroke-linejoin="miter" stroke-miterlimit="10" stroke-dasharray="" stroke-dashoffset="0" font-family="none" font-weight="none" font-size="none" text-anchor="none" style="mix-blend-mode: normal" data-fill-palette-color="primary" opacity="1"></path><path d="M15.75 80.71h-4.01v-30.44h-10.3v-3.4h24.63v3.4h-10.32zM35.74 80.71h-3.95v-36.74h3.95v10.1l-0.14 5.2c1.2-1.153 2.467-2.137 3.8-2.95 1.34-0.813 2.87-1.22 4.59-1.22v0c2.607 0 4.52 0.827 5.74 2.48 1.22 1.653 1.83 4.073 1.83 7.26v0 15.87h-3.9v-15.36c0-2.373-0.383-4.107-1.15-5.2-0.767-1.087-2.02-1.63-3.76-1.63v0c-1.287 0-2.45 0.34-3.49 1.02-1.04 0.687-2.213 1.68-3.52 2.98v0zM65.48 81.32v0c-2.087 0-3.83-0.607-5.23-1.82-1.4-1.213-2.1-2.95-2.1-5.21v0c0-2.733 1.243-4.833 3.73-6.3 2.48-1.467 6.397-2.5 11.75-3.1v0c0-1.107-0.15-2.157-0.45-3.15-0.3-0.993-0.83-1.807-1.59-2.44-0.753-0.633-1.83-0.95-3.23-0.95v0c-1.48 0-2.867 0.283-4.16 0.85-1.293 0.573-2.43 1.167-3.41 1.78v0l-1.54-2.63c1.107-0.767 2.503-1.5 4.19-2.2 1.687-0.7 3.537-1.05 5.55-1.05v0c3.047 0 5.24 0.937 6.58 2.81 1.347 1.867 2.02 4.33 2.02 7.39v0 15.41h-3.3l-0.32-3.03h-0.14c-1.207 0.993-2.513 1.85-3.92 2.57-1.407 0.713-2.883 1.07-4.43 1.07zM66.55 78.15v0c1.253 0 2.43-0.293 3.53-0.88 1.1-0.587 2.283-1.427 3.55-2.52v0-7.22c-2.88 0.353-5.167 0.823-6.86 1.41-1.693 0.587-2.907 1.297-3.64 2.13-0.727 0.827-1.09 1.793-1.09 2.9v0c0 1.48 0.437 2.547 1.31 3.2 0.88 0.653 1.947 0.98 3.2 0.98zM89.48 80.71h-3.91v-36.74h3.91v25.17h0.14l10.89-13.41h4.42l-8.35 10.04 9.5 14.94h-4.32l-7.42-12.21-4.86 5.57zM118.12 81.32v0c-2.627 0-4.553-0.823-5.78-2.47-1.227-1.64-1.84-4.057-1.84-7.25v0-15.87h3.9v15.36c0 2.36 0.387 4.08 1.16 5.16 0.773 1.087 2.023 1.63 3.75 1.63v0c1.3 0 2.467-0.34 3.5-1.02 1.04-0.673 2.177-1.773 3.41-3.3v0-17.83h3.91v24.98h-3.25l-0.34-3.96h-0.17c-1.16 1.373-2.397 2.477-3.71 3.31-1.32 0.84-2.833 1.26-4.54 1.26zM142.7 80.71h-3.95v-24.98h3.29l0.37 4.52h0.09c0.88-1.56 1.93-2.81 3.15-3.75 1.227-0.933 2.547-1.4 3.96-1.4v0c1.073 0 1.953 0.17 2.64 0.51v0l-0.88 3.37c-0.36-0.113-0.7-0.193-1.02-0.24-0.313-0.053-0.73-0.08-1.25-0.08v0c-1.06 0-2.177 0.437-3.35 1.31-1.173 0.873-2.19 2.4-3.05 4.58v0z" fill="#000000" fill-rule="nonzero" stroke="none" stroke-width="1" stroke-linecap="butt" stroke-linejoin="miter" stroke-miterlimit="10" stroke-dasharray="" stroke-dashoffset="0" font-family="none" font-weight="none" font-size="none" text-anchor="none" style="mix-blend-mode: normal" data-fill-palette-color="primary" opacity="1"></path></g></svg></g></svg></g></svg></g></svg></g></svg></g><defs></defs></svg><rect width="326.9444847780843" height="200" fill="none" stroke="none" visibility="hidden"></rect></g></svg></g></svg>